<svg 
          width="38.28947067260742" 
          height="32.737709045410156" fill="none" 
          xmlns="http://www.w3.org/2000/svg">
          <path d="M 31.894279991350537 32.737709045410156 C 31.903214200855583 32.59020904332371 31.907892227172855 32.44145928391593 31.907892227172855 32.291667607347456 C 31.907892227172855 28.264584222267235 28.574581018895444 25.000000728269 24.462717374165855 25.000000728269 L 13.82675329844157 25.000000728269 C 9.714889653711984 25.000000728269 6.38157844543457 28.264584222267235 6.38157844543457 32.291667607347456 C 6.38157844543457 32.44145928391593 6.386194800025123 32.59020904332371 6.395277913170504 32.737709045410156 C 2.4706284091848834 29.303958872267376 0 24.309584213151354 0 18.75000054620175 C 0 8.394666757350226 8.5713956599587 0 19.14473533630371 0 C 29.718160215913183 0 38.28947067260742 8.394666757350226 38.28947067260742 18.75000054620175 C 38.28947067260742 24.309584213151354 35.81873804157226 29.303958872267376 31.894279991350537 32.737709045410156 Z M 19.14473533630371 18.75000054620175 C 22.669281214366872 18.75000054620175 25.52631378173828 15.951875565223412 25.52631378173828 12.5000003641345 C 25.52631378173828 9.048229471176983 22.669281214366872 6.25000018206725 19.14473533630371 6.25000018206725 C 15.62018945824055 6.25000018206725 12.76315689086914 9.048229471176983 12.76315689086914 12.5000003641345 C 12.76315689086914 15.951875565223412 15.62018945824055 18.75000054620175 19.14473533630371 18.75000054620175 Z" fill="rgb(0,26.000000350177288,114.0000008046627)"/>
        </svg>