<svg 
          width="42.078948974609375" 
          height="31.25" fill="none" 
          xmlns="http://www.w3.org/2000/svg">
          <path d="M 4.675438774956597 4.464285714285714 C 2.0932639982721515 4.464285714285714 0 6.463013323290008 0 8.928571428571429 L 0 26.785714285714285 C 0 29.251339180128916 2.0932639982721515 31.25 4.675438774956597 31.25 L 37.40351019965278 31.25 C 39.98575492448193 31.25 42.078948974609375 29.251339180128916 42.078948974609375 26.785714285714285 L 42.078948974609375 8.928571428571429 C 42.078948974609375 6.463013323290008 39.98575492448193 4.464285714285714 37.40351019965278 4.464285714285714 L 31.55921173095703 4.464285714285714 C 30.268089368542455 4.464285714285714 29.221492343478733 3.4649107339126726 29.221492343478733 2.232142857142857 C 29.221492343478733 0.9993749803730421 28.17489531841501 0 26.883772956000435 0 L 15.195176018608942 0 C 13.904100334737148 0 12.857456631130642 0.9993749803730421 12.857456631130642 2.232142857142857 C 12.857456631130642 3.4649107339126726 11.810812927524138 4.464285714285714 10.519737243652344 4.464285714285714 L 4.675438774956597 4.464285714285714 Z M 28.052632649739586 17.857142857142858 C 28.052632649739586 21.555580464856966 24.912841853226283 24.55357142857143 21.039474487304688 24.55357142857143 C 17.166107121383092 24.55357142857143 14.026316324869793 21.555580464856966 14.026316324869793 17.857142857142858 C 14.026316324869793 14.158705249428749 17.166107121383092 11.160714285714286 21.039474487304688 11.160714285714286 C 24.912841853226283 11.160714285714286 28.052632649739586 14.158705249428749 28.052632649739586 17.857142857142858 Z" fill="rgb(0,30.00000011175871,69.00000348687172)"/>
        </svg>