<svg 
          width="16" 
          height="15.902812957763672" fill="none" 
          xmlns="http://www.w3.org/2000/svg">
          <path d="M 16 8 C 16 3.58174991607666 12.41825008392334 0 8 0 C 3.58174991607666 0 0 3.58174991607666 0 8 C 0 11.993000030517578 2.92549991607666 15.30268794298172 6.75 15.902812957763672 L 6.75 10.3125 L 4.71875 10.3125 L 4.71875 8 L 6.75 8 L 6.75 6.237500190734863 C 6.75 4.232500076293945 7.944375395774841 3.125 9.771750450134277 3.125 C 10.647000432014465 3.125 11.5625 3.28125 11.5625 3.28125 L 11.5625 5.25 L 10.553750038146973 5.25 C 9.559937536716461 5.25 9.25 5.86668735742569 9.25 6.499374866485596 L 9.25 8 L 11.46875 8 L 11.114062309265137 10.3125 L 9.25 10.3125 L 9.25 15.902812957763672 C 13.07450008392334 15.30268794298172 16 11.993062496185303 16 8 Z" fill="rgb(24.000000469386578,119.00000050663948,242.00000077486038)"/>
        </svg>